<svg width="1024" xmlns="http://www.w3.org/2000/svg" height="1024" id="screenshot-57dd8bb3-cd2d-805d-8007-c349faa613cc" viewBox="0 0 1024 1024" xmlns:xlink="http://www.w3.org/1999/xlink" fill="none" version="1.1"><g id="shape-57dd8bb3-cd2d-805d-8007-c349faa613cc"><defs><clipPath id="frame-clip-57dd8bb3-cd2d-805d-8007-c349faa613cc-render-1" class="frame-clip frame-clip-def"><rect rx="0" ry="0" x="0" y="0" width="1024" height="1024" transform="matrix(1.000000, 0.000000, 0.000000, 1.000000, 0.000000, 0.000000)"/></clipPath></defs><g class="frame-container-wrapper"><g class="frame-container-blur"><g class="frame-container-shadows"><g clip-path="url(#frame-clip-57dd8bb3-cd2d-805d-8007-c349faa613cc-render-1)" fill="none"><g class="fills" id="fills-57dd8bb3-cd2d-805d-8007-c349faa613cc"><rect rx="0" ry="0" x="0" y="0" width="1024" height="1024" transform="matrix(1.000000, 0.000000, 0.000000, 1.000000, 0.000000, 0.000000)" class="frame-background"/></g><g class="frame-children"><g id="shape-2616592c-24d9-80db-8007-df63b465b9ce" rx="0" ry="0"><g id="shape-57dd8bb3-cd2d-805d-8007-c34e4933e0b6" rx="0" ry="0"><g id="shape-57dd8bb3-cd2d-805d-8007-c34d23dc0509"><defs><linearGradient id="fill-color-gradient-render-4-0" x1="0.010394477956495507" y1="0.4869235887016838" x2="1.0128779195432998" y2="0.46597175510451005" gradientTransform=""><stop offset="0" stop-color="#2d61ff" stop-opacity="1"/><stop offset="1" stop-color="#28bfff" stop-opacity="1"/></linearGradient><pattern patternUnits="userSpaceOnUse" x="129.3871930932146" y="297.33611528544225" width="510.15062657197996" height="510.1506265719738" id="fill-0-render-4"><g><rect width="510.15062657197996" height="510.1506265719738" style="fill: url(&quot;#fill-color-gradient-render-4-0&quot;);"/></g></pattern></defs><g class="fills" id="fills-57dd8bb3-cd2d-805d-8007-c34d23dc0509"><rect rx="80" ry="80" x="129.3871930932146" y="297.33611528544225" transform="matrix(0.707106, 0.707108, -0.707106, 0.707108, 503.220176, -110.059331)" width="510.15062657197996" height="510.1506265719738" fill="url(#fill-0-render-4)"/></g></g><g id="shape-57dd8bb3-cd2d-805d-8007-c34d9aaee5b8"><defs><linearGradient id="fill-color-gradient-render-5-0" x1="0.010394477956495507" y1="0.4869235887016838" x2="1.0128779195432998" y2="0.46597175510451005" gradientTransform=""><stop offset="0" stop-color="#28bfff" stop-opacity="1"/><stop offset="1" stop-color="#2d61ff" stop-opacity="1"/></linearGradient><pattern patternUnits="userSpaceOnUse" x="384.46218033481273" y="297.3361152854402" width="510.1506265719745" height="510.1506265719777" id="fill-0-render-5"><g><rect width="510.1506265719745" height="510.1506265719777" style="fill: url(&quot;#fill-color-gradient-render-5-0&quot;);"/></g></pattern></defs><g class="fills" id="fills-57dd8bb3-cd2d-805d-8007-c34d9aaee5b8"><rect rx="80" ry="80" x="384.46218033481273" y="297.3361152854402" transform="matrix(0.707106, 0.707108, -0.707106, 0.707108, 577.930141, -290.424814)" width="510.1506265719745" height="510.1506265719777" fill="url(#fill-0-render-5)"/></g></g></g><g id="shape-2616592c-24d9-80db-8007-df638c5a13cd" rx="0" ry="0" style="fill: rgb(0, 0, 0);"><g id="shape-2616592c-24d9-80db-8007-df638c5a9db5" style="display: none;"><g class="fills" id="fills-2616592c-24d9-80db-8007-df638c5a9db5"><rect width="1188.0000000000018" height="832" x="-82" transform="matrix(1.000000, 0.000000, 0.000000, 1.000000, 0.000000, 0.000000)" style="fill: none;" ry="0" fill="none" rx="0" y="96"/></g></g><g id="shape-2616592c-24d9-80db-8007-df638c5ba96a"><g class="fills" id="fills-2616592c-24d9-80db-8007-df638c5ba96a"><path d="M859.4892578125,402.7701416015625L681.2900390625,239.2227783203125L656.2216796875,266.5599365234375L804.7216796875,402.7701416015625L219.396484375,402.7701416015625L367.896484375,266.441162109375L342.8291015625,239.1041259765625L164.6279296875,402.7701416015625L164.5107421875,402.7701416015625L164.5107421875,510.5736083984375C164.5107421875,559.30517578125,211.435546875,599.00341796875,269.0537109375,599.00341796875L378.943359375,599.00341796875C436.5625,599.00341796875,483.48828125,559.30517578125,483.48828125,510.5736083984375L483.48828125,439.73486328125L540.51171875,439.73486328125L540.51171875,510.5736083984375C540.51171875,559.30517578125,587.4375,599.00341796875,645.056640625,599.00341796875L754.9462890625,599.00341796875C812.564453125,599.00341796875,859.4892578125,559.30517578125,859.4892578125,510.5736083984375L859.4892578125,402.7701416015625Z" style="fill: rgb(252, 96, 168);"/></g></g></g></g></g></g></g></g></g></g></svg>